<?xml version="1.0" standalone="no"?>
<!DOCTYPE svg PUBLIC "-//W3C//DTD SVG 20010904//EN"
 "http://www.w3.org/TR/2001/REC-SVG-20010904/DTD/svg10.dtd">
<svg version="1.0" xmlns="http://www.w3.org/2000/svg"
 width="2000.000000pt" height="2000.000000pt" viewBox="0 0 2000.000000 2000.000000"
 preserveAspectRatio="xMidYMid meet">
<metadata>
Created by potrace 1.11, written by Peter Selinger 2001-2013
</metadata>
<g transform="translate(0.000000,2000.000000) scale(0.100000,-0.100000)"
fill="#000000" stroke="none">
<path d="M8340 19437 c0 -20 -33 -47 -57 -47 -11 0 -28 -9 -38 -20 -10 -11
-26 -20 -35 -20 -9 0 -25 -9 -35 -20 -10 -11 -23 -20 -30 -20 -7 0 -28 -16
-48 -35 -20 -19 -39 -35 -42 -35 -5 0 -29 -24 -129 -135 -25 -27 -46 -56 -46
-62 0 -7 -9 -22 -20 -33 -11 -11 -20 -29 -20 -40 0 -11 -7 -23 -15 -26 -8 -4
-15 -17 -15 -30 0 -13 -9 -38 -20 -56 -11 -18 -20 -45 -20 -60 0 -15 -8 -47
-17 -70 -26 -62 -25 -328 0 -375 9 -18 17 -46 17 -63 0 -18 9 -43 20 -57 11
-14 20 -39 20 -54 0 -17 9 -37 20 -46 11 -10 20 -25 20 -34 0 -9 7 -22 15 -29
8 -7 15 -18 15 -24 0 -6 8 -19 18 -28 17 -16 32 -35 87 -107 17 -22 36 -40 42
-41 7 0 18 -9 25 -20 7 -11 17 -20 22 -20 5 0 16 -7 25 -15 9 -8 26 -23 39
-35 12 -11 28 -20 35 -20 8 0 22 -9 32 -20 10 -11 25 -20 32 -20 8 0 26 -9 40
-20 14 -11 38 -20 52 -20 15 0 36 -7 47 -15 10 -8 31 -15 45 -15 15 0 55 -9
89 -20 57 -18 90 -20 384 -20 l321 0 0 -310 0 -310 -78 0 c-54 0 -88 -5 -110
-17 -22 -12 -63 -18 -132 -20 -55 -2 -116 -10 -135 -18 -19 -8 -80 -16 -136
-18 -73 -3 -108 -8 -125 -20 -14 -11 -43 -17 -74 -17 -31 0 -66 -8 -90 -20
-24 -12 -59 -20 -91 -20 -31 0 -56 -5 -63 -14 -6 -7 -39 -16 -75 -18 -35 -3
-75 -13 -87 -22 -15 -10 -44 -16 -76 -16 -35 0 -64 -7 -85 -20 -19 -11 -51
-20 -74 -20 -23 0 -47 -6 -53 -14 -6 -7 -33 -16 -60 -20 -27 -3 -54 -13 -61
-21 -7 -8 -28 -15 -47 -15 -20 0 -46 -9 -60 -20 -15 -11 -41 -20 -61 -20 -20
0 -43 -7 -53 -16 -10 -9 -39 -19 -63 -21 -25 -3 -51 -12 -57 -19 -6 -8 -27
-14 -46 -14 -20 0 -46 -9 -60 -20 -14 -11 -37 -20 -50 -20 -14 0 -36 -9 -50
-20 -14 -11 -36 -20 -48 -20 -12 0 -28 -7 -35 -15 -7 -8 -24 -15 -37 -15 -14
0 -36 -9 -50 -20 -14 -11 -35 -20 -45 -20 -11 0 -31 -9 -45 -20 -14 -11 -36
-20 -48 -20 -12 0 -28 -7 -35 -15 -7 -8 -22 -15 -34 -15 -11 0 -34 -9 -51 -20
-16 -11 -38 -20 -48 -20 -11 0 -30 -9 -44 -20 -14 -11 -36 -20 -48 -20 -12 0
-28 -7 -35 -15 -7 -8 -18 -15 -25 -15 -7 0 -24 -9 -38 -20 -14 -11 -34 -20
-44 -20 -10 0 -26 -9 -36 -20 -9 -11 -24 -20 -33 -20 -9 0 -27 -9 -41 -20 -14
-11 -31 -20 -38 -20 -7 0 -18 -7 -25 -15 -7 -8 -20 -15 -30 -15 -9 0 -27 -9
-40 -20 -13 -11 -30 -20 -37 -20 -8 0 -26 -9 -40 -20 -14 -11 -31 -20 -38 -20
-7 0 -18 -7 -25 -15 -7 -8 -19 -15 -27 -15 -8 0 -26 -9 -40 -20 -14 -11 -33
-20 -42 -20 -9 0 -22 -9 -29 -20 -7 -11 -21 -20 -32 -20 -11 0 -20 -5 -20 -11
0 -5 -13 -15 -29 -20 -16 -6 -32 -17 -35 -25 -3 -8 -14 -14 -23 -14 -10 0 -26
-9 -36 -20 -9 -11 -23 -20 -31 -20 -8 0 -19 -6 -23 -13 -4 -7 -19 -18 -33 -25
-61 -31 -80 -44 -80 -52 0 -5 -10 -12 -22 -16 -12 -3 -43 -22 -70 -40 -26 -19
-52 -34 -56 -34 -5 0 -17 -9 -27 -20 -10 -11 -22 -20 -27 -20 -5 0 -40 -25
-78 -55 -38 -30 -73 -55 -77 -55 -5 0 -14 -9 -21 -20 -7 -11 -18 -20 -26 -20
-8 0 -16 -7 -20 -15 -3 -8 -12 -15 -20 -15 -9 0 -20 -9 -26 -20 -6 -11 -17
-20 -25 -20 -8 0 -19 -9 -25 -20 -6 -11 -15 -20 -21 -20 -6 0 -54 -34 -107
-75 -135 -105 -164 -130 -233 -196 -33 -33 -62 -59 -64 -59 -2 0 -21 -17 -42
-37 -22 -21 -75 -69 -118 -108 -146 -130 -206 -187 -297 -286 -42 -46 -89 -97
-104 -114 -42 -47 -182 -199 -236 -257 -28 -29 -61 -68 -73 -88 -22 -35 -35
-51 -107 -133 -21 -23 -38 -46 -38 -52 0 -5 -23 -35 -51 -65 -28 -30 -64 -76
-81 -102 -17 -27 -35 -48 -40 -48 -4 0 -8 -5 -8 -10 0 -6 -18 -30 -40 -52 -22
-23 -40 -50 -40 -60 0 -10 -7 -21 -15 -24 -8 -4 -15 -12 -15 -19 0 -6 -9 -20
-20 -30 -11 -10 -20 -26 -20 -36 0 -10 -6 -22 -12 -26 -16 -10 -58 -69 -58
-81 0 -5 -11 -21 -24 -35 -13 -14 -32 -44 -42 -66 -11 -22 -23 -41 -29 -41 -5
0 -18 -19 -29 -41 -10 -22 -29 -52 -42 -66 -13 -14 -24 -30 -24 -35 0 -4 -16
-31 -35 -58 -19 -27 -35 -57 -35 -65 0 -8 -9 -23 -20 -32 -11 -10 -20 -28 -20
-40 0 -12 -9 -27 -20 -33 -11 -6 -20 -21 -20 -34 0 -13 -7 -29 -14 -36 -8 -6
-20 -27 -26 -46 -6 -19 -16 -34 -21 -34 -5 0 -9 -8 -9 -17 0 -10 -9 -29 -20
-43 -11 -14 -20 -30 -20 -36 0 -6 -7 -17 -15 -24 -8 -7 -15 -20 -15 -30 0 -9
-9 -25 -20 -35 -11 -10 -20 -26 -20 -37 0 -10 -9 -26 -20 -35 -11 -10 -20 -27
-20 -38 0 -11 -9 -28 -20 -38 -11 -9 -20 -29 -20 -46 0 -16 -7 -34 -15 -41 -8
-7 -18 -30 -21 -51 -4 -21 -13 -40 -20 -43 -8 -3 -14 -19 -14 -35 0 -20 -7
-34 -20 -41 -11 -6 -20 -21 -20 -33 0 -13 -9 -40 -20 -62 -11 -22 -20 -47 -20
-56 0 -9 -7 -22 -15 -29 -8 -7 -15 -23 -15 -36 0 -13 -9 -32 -20 -41 -11 -10
-20 -30 -20 -45 0 -16 -4 -28 -8 -28 -13 0 -32 -47 -32 -79 0 -16 -7 -31 -15
-35 -10 -3 -15 -19 -15 -44 0 -24 -8 -49 -20 -65 -12 -14 -20 -40 -20 -61 0
-23 -7 -43 -20 -56 -13 -13 -20 -33 -20 -57 0 -20 -7 -44 -15 -53 -8 -9 -16
-32 -19 -53 -2 -20 -12 -46 -20 -59 -9 -12 -16 -38 -16 -56 0 -19 -9 -45 -20
-59 -13 -16 -20 -41 -20 -67 0 -23 -7 -52 -16 -64 -9 -13 -18 -51 -21 -85 -3
-34 -11 -65 -16 -69 -6 -3 -13 -35 -15 -70 -3 -34 -12 -74 -21 -87 -8 -14 -18
-56 -22 -94 -4 -41 -12 -72 -20 -77 -8 -5 -15 -35 -17 -76 -3 -39 -10 -74 -18
-82 -10 -9 -14 -40 -14 -101 0 -61 -6 -103 -20 -144 -14 -38 -20 -82 -20 -136
0 -86 -24 -181 -47 -181 -11 0 -13 -165 -13 -980 0 -864 2 -980 15 -980 8 0
15 -8 15 -18 0 -10 6 -24 12 -30 8 -8 14 -53 16 -125 3 -84 8 -123 23 -154 13
-29 19 -65 19 -111 0 -40 5 -75 14 -87 7 -11 16 -57 19 -102 3 -56 10 -88 21
-98 11 -11 16 -35 16 -73 0 -41 6 -64 20 -82 14 -18 20 -41 20 -81 0 -33 6
-63 15 -75 8 -10 15 -35 15 -54 0 -19 9 -53 20 -75 11 -22 19 -58 20 -81 0
-26 7 -49 20 -64 13 -15 20 -37 20 -62 0 -21 7 -49 15 -61 8 -13 17 -40 19
-60 3 -21 12 -47 21 -59 8 -13 15 -36 15 -53 0 -16 9 -41 20 -55 11 -14 20
-38 20 -55 0 -16 9 -41 20 -55 11 -14 20 -38 20 -53 0 -16 6 -35 14 -42 7 -8
17 -34 20 -60 5 -29 12 -45 22 -45 9 0 14 -11 14 -31 0 -17 9 -42 20 -56 11
-14 20 -41 20 -60 0 -21 6 -36 15 -39 8 -4 15 -17 15 -31 0 -14 9 -36 20 -50
11 -14 20 -33 20 -43 0 -10 9 -29 20 -43 11 -14 20 -36 20 -50 0 -13 9 -32 20
-42 11 -10 20 -31 20 -47 0 -18 5 -28 15 -28 9 0 15 -10 15 -26 0 -14 9 -37
20 -51 11 -14 20 -34 20 -45 0 -10 6 -21 14 -24 8 -3 17 -20 20 -39 4 -18 13
-36 21 -39 8 -3 15 -16 15 -29 0 -13 9 -32 20 -42 11 -10 20 -28 20 -41 0 -13
9 -28 20 -34 13 -7 20 -21 20 -40 0 -20 5 -30 15 -30 9 0 15 -9 15 -22 0 -12
9 -31 19 -42 11 -12 31 -43 45 -70 14 -27 30 -54 35 -60 4 -6 11 -23 15 -38 3
-16 13 -28 21 -28 9 0 15 -9 15 -24 0 -13 7 -30 16 -37 9 -7 20 -22 26 -34 22
-48 45 -87 54 -93 6 -4 24 -29 39 -57 16 -27 35 -54 42 -58 7 -4 13 -16 13
-26 0 -10 9 -26 20 -36 11 -10 20 -24 20 -32 0 -7 4 -13 10 -13 5 0 17 -16 26
-35 9 -19 20 -35 25 -35 5 0 9 -7 9 -15 0 -7 6 -18 13 -22 16 -11 57 -69 57
-83 0 -5 9 -15 20 -22 11 -7 20 -18 20 -24 0 -6 9 -19 20 -29 11 -10 20 -23
20 -30 0 -6 16 -28 35 -49 19 -21 35 -42 35 -47 0 -5 4 -9 8 -9 5 0 23 -21 40
-48 17 -26 47 -62 66 -80 20 -18 36 -39 36 -46 0 -8 7 -16 15 -20 8 -3 15 -11
15 -18 0 -7 21 -35 46 -63 90 -100 153 -171 192 -220 22 -27 86 -98 143 -156
57 -59 132 -137 167 -173 34 -36 64 -66 66 -66 2 0 48 -43 101 -95 53 -52 101
-95 106 -95 5 0 9 -6 9 -12 1 -7 17 -26 38 -41 49 -37 141 -116 168 -145 12
-12 24 -22 27 -22 4 0 32 -25 64 -55 32 -30 64 -55 71 -55 7 0 15 -7 18 -15 4
-8 12 -15 20 -15 7 0 18 -9 24 -20 6 -11 17 -20 25 -20 8 0 19 -9 25 -20 6
-11 17 -20 26 -20 8 0 17 -7 20 -15 4 -8 14 -15 24 -15 10 0 22 -9 25 -20 3
-11 13 -20 20 -20 8 0 19 -9 25 -20 6 -11 17 -20 24 -20 7 0 21 -9 31 -20 10
-11 24 -20 32 -20 7 0 16 -7 19 -15 4 -8 12 -15 20 -15 8 0 19 -9 26 -20 7
-11 18 -20 25 -20 6 0 18 -6 25 -13 30 -27 78 -57 93 -57 8 0 15 -7 15 -15 0
-9 8 -18 18 -22 9 -3 25 -13 35 -21 22 -19 54 -38 89 -52 14 -6 29 -18 32 -26
3 -8 12 -14 19 -14 8 0 22 -9 32 -20 10 -11 26 -20 37 -20 10 0 18 -5 18 -11
0 -5 13 -15 29 -20 16 -6 32 -17 35 -25 3 -8 14 -14 24 -14 10 0 27 -9 37 -20
10 -11 27 -20 37 -20 10 0 21 -7 24 -15 4 -8 12 -15 19 -15 7 0 24 -9 38 -20
14 -11 32 -20 40 -20 7 0 22 -9 32 -20 10 -11 26 -20 35 -20 9 0 25 -9 35 -20
10 -11 26 -20 36 -20 10 0 21 -4 24 -10 3 -5 15 -10 27 -10 11 0 29 -11 40
-25 11 -14 30 -25 42 -25 13 0 31 -9 41 -20 10 -11 26 -20 35 -20 10 0 23 -7
30 -15 7 -8 20 -15 30 -15 9 0 29 -9 43 -20 14 -11 32 -20 40 -20 8 0 26 -9
40 -20 14 -11 34 -20 45 -20 11 0 25 -7 32 -15 7 -8 23 -15 36 -15 13 0 33 -9
44 -20 11 -11 28 -20 39 -20 10 0 30 -9 44 -20 14 -11 34 -20 45 -20 11 0 27
-6 35 -14 8 -8 30 -18 50 -21 20 -4 41 -13 48 -21 6 -8 24 -14 39 -14 15 0 39
-9 53 -20 14 -11 36 -20 50 -20 13 0 30 -7 37 -15 7 -8 30 -18 52 -21 22 -4
45 -13 53 -20 7 -8 27 -14 43 -14 16 0 41 -9 55 -20 14 -11 38 -20 54 -20 15
0 42 -9 58 -20 17 -11 44 -20 61 -20 17 0 37 -6 43 -14 6 -7 32 -16 57 -19 24
-2 53 -12 63 -21 10 -9 35 -16 57 -16 22 0 52 -9 69 -20 17 -11 47 -20 70 -20
22 0 49 -7 59 -15 11 -8 36 -15 56 -15 19 0 52 -9 73 -20 22 -12 56 -20 85
-20 28 0 62 -8 85 -20 22 -12 56 -20 85 -20 26 0 56 -6 67 -14 11 -8 56 -17
100 -21 44 -4 90 -13 102 -21 13 -8 50 -14 90 -14 46 -1 81 -7 108 -20 31 -15
62 -19 136 -20 75 0 107 -5 140 -20 43 -19 69 -20 1034 -20 965 0 991 1 1034
20 33 15 65 20 140 20 74 1 105 5 136 20 28 13 62 19 110 20 43 0 78 5 90 14
11 7 56 17 100 21 44 4 89 13 100 21 11 8 41 14 68 14 28 0 64 8 87 20 22 11
59 20 85 20 26 0 61 8 82 20 21 11 56 20 79 20 25 0 47 6 54 15 7 9 29 15 54
15 24 0 53 8 71 20 17 11 47 20 69 20 22 0 47 7 57 16 10 9 39 19 63 21 25 3
51 12 57 19 6 8 26 14 43 14 17 0 45 9 61 20 17 11 42 20 57 20 15 0 42 9 60
20 18 11 43 20 56 20 13 0 30 7 38 15 9 8 28 15 43 15 16 0 40 9 54 20 14 11
36 20 50 20 13 0 36 9 50 20 14 11 36 20 50 20 13 0 30 6 36 14 6 7 29 16 50
20 21 3 44 13 51 21 7 8 21 15 32 15 11 0 31 9 45 20 14 11 36 20 50 20 13 0
26 7 29 15 3 8 21 17 40 21 18 3 38 12 45 20 6 8 20 14 31 14 11 0 31 9 45 20
14 11 32 20 40 20 8 0 26 9 40 20 14 11 34 20 43 20 10 0 23 7 30 15 7 8 19
15 27 15 8 0 26 9 40 20 14 11 34 20 44 20 9 0 26 11 37 25 11 14 29 25 40 25
12 0 24 5 27 10 3 5 15 10 26 10 10 0 27 9 36 20 10 11 25 20 34 20 9 0 24 9
34 20 10 11 25 20 32 20 8 0 26 9 40 20 14 11 31 20 38 20 7 0 15 7 19 15 3 8
14 15 24 15 10 0 27 9 37 20 10 11 24 20 32 20 7 0 36 16 63 35 27 19 54 35
58 35 5 0 17 9 27 20 10 11 24 20 30 20 7 0 19 7 26 16 7 9 22 20 34 25 34 16
64 35 83 52 10 10 24 17 30 17 7 0 17 9 24 20 7 11 21 20 30 20 10 0 18 4 18
8 0 9 77 62 90 62 4 0 10 7 14 15 3 8 17 20 31 25 14 5 25 14 25 20 0 5 7 10
15 10 8 0 23 9 32 20 10 11 23 20 30 20 7 0 17 9 23 20 6 11 17 20 25 20 7 0
17 9 20 20 3 11 14 20 24 20 10 0 34 16 54 35 20 19 41 35 46 35 6 0 15 9 21
20 6 11 17 20 24 20 8 0 16 7 20 15 3 8 11 15 18 15 7 0 34 19 59 42 46 42
126 112 182 160 15 12 47 40 70 60 23 21 45 38 50 38 4 0 7 7 7 15 0 8 4 15 9
15 24 0 505 485 612 617 34 43 77 92 93 110 97 101 156 177 156 200 0 7 5 13
10 13 15 0 42 30 80 88 18 29 37 52 42 52 4 0 8 4 8 9 0 5 16 26 35 47 19 21
35 43 35 49 0 7 9 20 20 30 11 10 20 23 20 29 0 6 9 17 20 24 11 7 20 17 20
22 0 14 41 72 58 83 6 4 12 15 12 22 0 8 4 15 9 15 5 0 16 16 25 35 9 19 21
35 26 35 6 0 10 6 10 13 0 8 9 22 20 32 11 10 20 26 20 36 0 10 6 22 13 26 8
4 26 32 42 61 15 28 32 52 37 52 5 0 16 15 24 32 23 49 37 73 57 92 9 10 17
25 17 34 0 10 9 25 20 35 11 9 20 25 20 35 0 10 5 23 11 29 13 13 33 46 48 80
6 12 19 31 31 43 11 11 20 31 20 45 0 16 6 25 15 25 9 0 15 9 15 25 0 14 9 33
20 42 11 10 20 27 20 39 0 11 9 29 20 39 11 10 20 29 20 42 0 13 7 26 15 29 8
3 17 21 21 39 3 19 12 36 20 39 8 3 14 14 14 24 0 11 9 31 20 45 11 14 20 37
20 51 0 16 6 26 15 26 10 0 15 10 15 28 0 16 9 37 20 47 11 10 20 29 20 42 0
14 9 36 20 50 11 14 20 33 20 42 0 9 9 30 20 46 11 17 20 40 20 51 0 12 7 24
15 28 9 3 15 18 15 39 0 19 9 46 20 60 11 14 20 39 20 56 0 20 5 31 14 31 10
0 17 16 22 45 3 26 13 52 20 60 8 7 14 25 14 39 0 14 9 40 20 58 11 18 20 44
20 58 0 14 9 36 20 50 11 14 20 38 20 53 0 15 7 42 17 60 9 18 18 45 20 61 1
16 10 40 18 52 8 13 15 43 15 66 0 31 6 48 20 61 14 12 20 29 20 59 1 24 9 61
20 83 11 22 19 54 20 71 0 18 7 45 15 60 8 16 15 50 15 76 0 30 7 60 20 80 13
22 20 51 20 85 0 34 5 57 16 68 11 10 18 42 21 98 3 45 12 91 19 102 9 12 14
47 14 89 0 48 6 82 19 110 15 31 20 69 23 152 2 80 7 116 18 129 13 16 15 148
18 1003 2 952 2 988 -17 1046 -12 38 -21 101 -24 164 -3 69 -8 107 -17 112 -8
5 -15 49 -19 129 -4 68 -12 125 -18 129 -6 4 -12 35 -15 70 -3 38 -10 67 -18
72 -7 4 -15 37 -19 77 -4 39 -14 81 -24 96 -11 17 -17 46 -17 81 0 35 -5 60
-15 70 -9 8 -15 33 -15 58 -1 24 -8 61 -16 83 -9 22 -20 64 -24 94 -5 32 -15
58 -24 63 -10 6 -16 23 -16 43 0 19 -6 49 -14 67 -8 18 -19 52 -25 76 -7 23
-16 42 -21 42 -6 0 -10 15 -10 33 0 47 -10 77 -26 77 -10 0 -14 13 -14 45 0
32 -6 51 -20 65 -13 13 -20 33 -20 60 0 22 -6 42 -14 47 -7 4 -16 28 -19 53
-3 24 -13 49 -21 56 -9 6 -16 22 -16 35 0 14 -9 32 -20 42 -11 9 -20 28 -20
41 0 13 -6 29 -14 35 -8 7 -17 30 -21 51 -4 21 -13 44 -21 51 -8 6 -14 24 -14
40 0 18 -7 32 -20 39 -13 7 -20 21 -20 41 0 17 -6 32 -15 35 -8 4 -15 14 -15
23 0 9 -9 34 -20 56 -11 22 -20 49 -20 62 0 13 -9 28 -20 35 -13 9 -20 24 -20
45 0 23 -5 33 -15 33 -8 0 -18 12 -21 28 -4 15 -13 34 -20 42 -7 8 -17 26 -23
40 -11 25 -20 41 -53 92 -10 14 -18 33 -18 42 0 9 -4 16 -9 16 -5 0 -15 15
-21 34 -6 19 -17 39 -24 46 -8 6 -17 26 -20 45 -4 21 -13 35 -21 35 -9 0 -15
10 -15 23 0 12 -9 30 -20 40 -11 9 -20 23 -20 32 0 8 -18 42 -40 76 -22 34
-40 68 -40 76 0 7 -7 13 -15 13 -8 0 -17 11 -21 25 -3 14 -10 25 -14 25 -4 0
-11 11 -14 25 -4 14 -12 25 -19 25 -7 0 -18 12 -25 28 -22 49 -43 82 -52 82
-4 0 -13 12 -19 28 -20 46 -42 82 -51 82 -5 0 -15 12 -22 28 -27 52 -43 77
-55 85 -7 4 -13 14 -13 21 0 7 -9 21 -20 31 -11 10 -20 22 -20 27 0 5 -16 25
-35 45 -19 20 -35 40 -35 45 0 4 -7 16 -15 26 -37 42 -65 81 -65 91 0 6 -7 11
-15 11 -8 0 -15 3 -15 8 0 4 -12 20 -26 37 -14 16 -34 44 -45 62 -11 18 -25
33 -30 33 -5 0 -12 7 -16 16 -3 9 -21 32 -39 52 -18 20 -41 51 -51 69 -10 18
-21 33 -25 33 -24 0 1 37 72 107 44 43 80 84 80 91 0 6 6 12 13 12 15 0 247
233 247 249 0 6 6 11 13 11 6 0 65 54 130 120 114 115 148 138 161 105 3 -8
12 -15 21 -15 8 0 15 -5 15 -11 0 -16 161 -172 195 -189 17 -8 40 -25 52 -37
12 -13 31 -23 43 -23 11 0 28 -8 38 -18 14 -14 41 -21 98 -25 43 -4 81 -12 82
-17 2 -6 12 -10 22 -10 10 0 20 4 22 10 2 5 39 13 82 17 57 4 84 11 98 25 10
10 27 18 38 18 12 0 31 10 43 23 12 12 36 29 52 37 17 8 48 34 71 56 53 53
134 194 134 232 0 16 7 49 15 72 19 54 19 95 0 173 -8 34 -17 79 -20 100 -3
20 -10 37 -14 37 -5 0 -24 26 -41 58 -18 31 -39 61 -46 65 -8 4 -14 15 -14 22
0 8 -7 15 -15 15 -9 0 -21 11 -27 25 -6 14 -14 25 -18 25 -12 0 -90 77 -90 88
0 7 -4 12 -10 12 -13 0 -100 86 -100 99 0 6 -6 11 -13 11 -8 0 -20 11 -27 25
-7 14 -16 25 -20 25 -12 0 -90 77 -90 88 0 7 -4 12 -10 12 -13 0 -100 86 -100
99 0 6 -4 11 -9 11 -13 0 -251 238 -251 250 0 6 -4 10 -10 10 -12 0 -90 79
-90 91 0 5 -4 9 -9 9 -12 0 -101 88 -101 100 0 5 -9 11 -19 15 -11 3 -23 15
-26 26 -4 10 -10 19 -15 19 -4 0 -40 32 -79 70 -39 39 -75 70 -80 70 -4 0 -16
9 -26 20 -10 11 -26 20 -35 20 -10 0 -23 7 -30 15 -7 8 -30 18 -51 21 -21 4
-44 13 -50 20 -9 11 -43 14 -139 14 -96 0 -130 -3 -139 -14 -6 -7 -29 -16 -50
-20 -21 -3 -44 -13 -51 -21 -7 -8 -19 -15 -27 -15 -9 0 -37 -18 -63 -40 -26
-22 -52 -40 -56 -41 -11 0 -95 -115 -110 -150 -7 -15 -17 -30 -23 -33 -6 -4
-11 -21 -11 -37 0 -17 -7 -37 -15 -45 -21 -21 -22 -279 -1 -287 7 -3 16 -25
19 -48 3 -24 12 -48 19 -54 7 -5 22 -28 33 -50 20 -40 148 -175 165 -175 6 0
10 -5 10 -11 0 -13 87 -99 100 -99 14 0 22 -38 11 -58 -5 -10 -21 -24 -34 -31
-14 -7 -30 -24 -36 -37 -6 -13 -17 -24 -26 -24 -8 0 -15 -6 -15 -14 0 -8 -13
-23 -29 -32 -16 -10 -34 -28 -40 -41 -6 -12 -17 -23 -26 -23 -8 0 -15 -5 -15
-11 0 -13 -78 -89 -91 -89 -5 0 -9 -5 -9 -10 0 -12 -88 -100 -99 -100 -4 0
-13 -11 -19 -25 -6 -14 -18 -25 -27 -25 -8 0 -15 -5 -15 -11 0 -13 -78 -89
-91 -89 -5 0 -9 -4 -9 -10 0 -5 -20 -30 -45 -55 l-46 -45 -29 22 c-17 12 -30
25 -30 29 0 4 -9 10 -19 14 -11 3 -23 15 -26 26 -4 10 -12 19 -18 19 -7 0 -28
15 -48 33 -76 68 -122 107 -126 107 -5 0 -48 38 -100 88 -13 12 -28 22 -32 22
-5 0 -11 6 -14 14 -3 7 -28 28 -56 46 -28 19 -51 37 -51 42 0 4 -5 8 -11 8 -6
0 -30 16 -53 35 -24 19 -46 35 -51 35 -4 0 -28 17 -54 38 -25 21 -54 42 -63
45 -10 4 -18 11 -18 17 0 5 -5 10 -11 10 -11 0 -55 32 -90 65 -9 8 -19 15 -23
15 -10 0 -70 43 -79 58 -4 6 -15 12 -23 12 -8 0 -22 9 -31 20 -10 11 -25 20
-35 20 -9 0 -21 6 -25 13 -8 14 -47 37 -95 57 -14 6 -29 18 -32 26 -3 8 -13
14 -22 14 -10 0 -26 7 -36 17 -22 20 -53 38 -90 53 -14 6 -29 18 -32 26 -3 8
-13 14 -22 14 -10 0 -26 7 -36 17 -20 18 -48 35 -94 56 -17 8 -35 20 -38 26
-4 6 -15 11 -25 11 -10 0 -28 9 -41 20 -13 11 -31 20 -40 20 -10 0 -23 7 -30
15 -7 8 -20 15 -30 15 -9 0 -29 9 -43 20 -14 11 -32 20 -41 20 -9 0 -24 9 -33
20 -10 11 -26 20 -36 20 -10 0 -30 9 -44 20 -14 11 -34 20 -45 20 -10 0 -21 7
-24 15 -4 8 -17 15 -30 15 -13 0 -32 9 -41 20 -10 11 -27 20 -39 20 -11 0 -31
9 -44 20 -13 11 -35 20 -50 20 -15 0 -33 7 -40 15 -7 8 -25 15 -40 15 -15 0
-35 9 -45 20 -10 11 -30 20 -45 20 -15 0 -39 9 -53 20 -14 11 -36 20 -50 20
-13 0 -30 6 -36 14 -6 7 -29 16 -50 20 -21 3 -44 13 -51 21 -7 8 -23 15 -35
15 -12 0 -34 9 -48 20 -14 11 -38 20 -54 20 -16 0 -37 6 -48 14 -11 7 -41 16
-67 20 -25 4 -52 14 -58 21 -7 8 -29 15 -50 15 -23 0 -46 8 -60 20 -14 12 -37
20 -60 20 -21 0 -43 6 -49 14 -6 8 -33 17 -59 21 -26 4 -53 12 -60 17 -7 6
-36 15 -64 19 -28 5 -58 15 -68 24 -10 10 -36 15 -71 15 -34 0 -63 6 -77 16
-13 9 -51 18 -85 21 -34 3 -71 11 -82 18 -11 7 -50 14 -87 17 -42 2 -73 10
-85 20 -11 10 -42 18 -78 21 -33 2 -78 11 -100 20 -25 10 -72 16 -125 17 -54
0 -94 6 -110 15 -16 9 -57 15 -115 15 -58 1 -104 7 -130 17 -22 9 -67 18 -100
20 l-60 4 0 310 0 309 300 0 c271 0 306 2 363 20 35 11 76 20 92 20 15 0 33 7
40 15 7 8 25 15 40 15 15 0 39 9 53 20 14 11 32 20 40 20 8 0 20 7 27 15 6 8
21 17 33 21 23 7 148 103 184 141 48 50 140 179 147 206 3 15 13 27 21 27 10
0 15 11 15 33 0 17 9 43 20 57 11 14 20 39 20 55 0 17 8 44 17 60 34 62 28
425 -7 425 -6 0 -10 20 -10 43 0 30 -7 52 -20 67 -11 13 -20 34 -20 47 0 12
-4 23 -8 23 -5 0 -17 17 -26 38 -39 87 -48 99 -147 200 -82 84 -134 129 -158
137 -11 3 -25 12 -31 20 -7 8 -19 15 -28 15 -8 0 -24 8 -34 17 -11 10 -34 22
-51 28 -18 5 -36 20 -42 33 l-10 22 -1662 0 c-1386 0 -1663 -2 -1663 -13z
m1748 -4929 c6 -6 12 -19 12 -29 0 -9 6 -24 13 -31 27 -29 57 -78 57 -92 0 -8
6 -19 13 -23 7 -4 26 -30 42 -58 15 -27 34 -54 42 -58 7 -4 13 -16 13 -27 0
-10 6 -25 13 -32 23 -26 54 -74 61 -96 4 -12 11 -22 16 -22 4 0 18 -21 30 -46
13 -25 33 -57 46 -71 13 -14 24 -34 24 -45 0 -10 7 -21 15 -24 8 -4 15 -12 15
-19 0 -6 9 -20 20 -30 11 -10 20 -27 20 -37 0 -11 9 -22 20 -25 20 -5 20 -14
20 -2174 l0 -2169 24 -9 c13 -5 36 -21 51 -35 15 -14 31 -26 36 -26 9 0 93
-85 134 -135 17 -20 42 -51 58 -68 15 -17 27 -37 27 -44 0 -7 7 -13 15 -13 8
0 19 -16 25 -37 6 -21 17 -47 25 -57 8 -11 15 -30 15 -43 0 -14 6 -23 15 -23
10 0 15 -10 15 -31 0 -17 9 -42 20 -56 12 -15 20 -41 20 -63 0 -21 6 -55 14
-76 20 -59 28 -181 15 -249 -6 -33 -12 -87 -13 -120 -2 -33 -8 -72 -14 -87 -6
-16 -9 -28 -7 -28 3 0 -1 -15 -9 -33 -7 -19 -19 -58 -25 -88 -8 -34 -21 -61
-35 -74 -13 -11 -26 -34 -27 -50 -2 -17 -20 -47 -41 -70 -21 -22 -38 -46 -38
-52 0 -7 -4 -13 -9 -13 -5 0 -11 -10 -15 -23 -3 -12 -14 -32 -26 -44 -11 -12
-20 -24 -20 -27 0 -13 -57 -66 -72 -66 -10 0 -18 -4 -18 -9 0 -24 -88 -88 -97
-70 -1 2 -20 -14 -42 -35 -28 -27 -51 -41 -72 -42 -18 -1 -36 -9 -41 -18 -5
-9 -22 -16 -38 -16 -16 0 -32 -4 -35 -10 -3 -5 -15 -10 -26 -10 -10 0 -19 -6
-19 -12 0 -9 -4 -8 -10 2 -6 10 -10 11 -10 3 0 -7 -7 -13 -15 -13 -8 0 -15 -5
-15 -11 0 -7 -11 -9 -29 -6 -16 3 -32 3 -36 -1 -7 -7 -21 -8 -132 -13 -35 -1
-63 -6 -63 -11 0 -4 -13 -8 -30 -8 -16 0 -30 4 -30 8 0 5 -24 10 -52 11 -29 2
-66 4 -83 4 -16 1 -34 5 -40 8 -5 3 -14 5 -20 4 -12 -1 -53 -24 -43 -25 4 0
-39 -44 -94 -97 -55 -54 -112 -111 -127 -127 -23 -25 -162 -163 -201 -199 -8
-8 -42 -43 -76 -78 -33 -35 -81 -83 -107 -107 -26 -23 -45 -42 -43 -42 5 0
-142 -147 -169 -169 -15 -11 -25 -21 -21 -21 3 0 -3 -9 -14 -20 -11 -11 -24
-20 -30 -20 -5 0 -10 -4 -10 -9 0 -7 -190 -201 -247 -252 -10 -9 -60 -60 -112
-113 -51 -53 -98 -96 -104 -96 -6 0 -8 -2 -5 -5 5 -5 -95 -110 -138 -144 -15
-11 -24 -21 -21 -21 3 0 -15 -20 -40 -45 -24 -25 -49 -45 -54 -45 -6 0 -7 -4
-4 -10 3 -5 -2 -10 -11 -10 -10 0 -15 -2 -12 -5 4 -5 -168 -185 -177 -185 -2
0 -17 -13 -33 -30 -17 -16 -29 -30 -28 -30 1 0 -42 -45 -96 -100 -55 -55 -101
-100 -104 -100 -2 0 -13 -9 -24 -20 -11 -11 -18 -20 -15 -20 6 0 -53 -58 -94
-92 -18 -16 -30 -28 -26 -28 3 0 -6 -11 -21 -25 -15 -14 -32 -25 -37 -25 -6 0
-7 -3 -4 -6 4 -4 -10 -20 -30 -35 -20 -16 -33 -29 -30 -29 3 0 -38 -43 -90
-95 -53 -52 -101 -95 -106 -95 -6 0 -8 -3 -4 -6 8 -8 -18 -34 -34 -34 -7 0
-10 -2 -7 -5 7 -7 -201 -215 -215 -215 -6 0 -8 -2 -5 -5 3 -3 -37 -47 -88 -98
-110 -109 -134 -130 -134 -117 0 15 -40 12 -41 -2 0 -10 -2 -10 -6 0 -6 15
-35 16 -51 0 -7 -7 -22 -13 -35 -14 -36 -4 -89 -12 -127 -19 -19 -4 -45 -7
-57 -7 -13 0 -23 -5 -23 -12 0 -6 -5 -4 -10 4 -5 8 -10 10 -10 4 0 -6 -10 -10
-22 -10 -13 1 -31 -4 -40 -12 -13 -11 -18 -12 -18 -3 0 7 -5 9 -10 6 -6 -4
-28 -8 -48 -11 -20 -2 -54 -7 -74 -12 -20 -6 -39 -7 -42 -4 -4 3 -6 0 -6 -8 0
-10 -3 -10 -16 1 -9 7 -18 9 -22 3 -4 -5 -18 -11 -32 -13 -14 -1 -28 -8 -32
-15 -6 -8 -8 -7 -8 2 0 8 -5 10 -12 6 -6 -4 -30 -8 -53 -9 -39 -2 -102 -18
-137 -36 -12 -6 -23 1 -44 28 -25 33 -26 38 -14 67 7 17 13 40 14 51 2 11 6
28 10 37 5 10 5 25 2 33 -3 9 1 18 10 22 10 4 14 13 10 28 -3 12 -3 25 1 29 7
7 11 24 15 64 1 12 5 22 9 22 4 0 5 9 2 20 -3 11 0 27 7 35 6 7 14 31 16 52 7
59 9 67 18 81 4 8 10 28 11 45 5 45 25 138 37 167 6 14 12 47 14 74 3 27 9 55
15 63 6 7 9 22 6 34 -5 17 49 75 291 317 163 162 296 299 294 304 -1 4 3 8 8
8 14 0 206 192 202 202 -1 4 3 8 8 8 12 0 720 705 720 717 0 4 14 16 31 25 17
10 27 22 24 28 -3 5 -1 10 4 10 15 0 471 456 464 464 -4 3 -1 6 6 6 15 0 157
140 153 152 -1 4 2 8 7 8 13 0 251 236 251 248 0 5 9 12 21 15 11 3 23 15 26
26 3 12 10 21 15 21 12 0 204 193 200 202 -1 5 3 8 8 8 14 0 256 242 253 252
-2 4 3 8 10 8 7 0 20 9 30 21 22 25 21 82 -1 159 -22 74 -20 266 2 311 9 18
16 53 16 79 0 32 6 55 20 73 11 14 20 39 20 56 0 21 5 31 15 31 9 0 15 9 15
23 0 13 7 32 15 43 8 10 19 36 25 57 6 21 17 37 25 37 8 0 15 6 15 13 0 7 12
27 28 44 15 17 41 48 57 68 41 50 125 135 134 135 5 0 21 12 36 26 15 14 38
30 51 35 l24 9 0 2169 c0 2160 0 2169 20 2174 11 3 20 12 20 21 0 9 5 16 10
16 6 0 16 13 23 28 12 29 29 51 60 80 9 9 17 20 17 24 0 8 47 80 58 88 13 9
52 69 52 78 0 5 6 15 14 21 8 7 36 44 63 84 26 39 56 79 65 89 9 9 25 32 34
50 9 18 32 49 50 68 19 19 34 40 34 46 0 6 9 23 20 37 11 14 20 33 20 42 0 14
7 16 43 10 23 -4 48 -12 55 -17z"/>
</g>
</svg>
